<mxfile host="app.diagrams.net" modified="2020-10-21T00:45:35.548Z" agent="5.0 (Windows)" etag="eyCTFvoTMFwAdu2Nek9p" version="13.8.1" type="github">
  <diagram id="vsTQFFZZEvAPsO7oVaOF" name="Page-1">
    <mxGraphModel dx="2939" dy="2163" grid="1" gridSize="10" guides="1" tooltips="1" connect="1" arrows="1" fold="1" page="1" pageScale="1" pageWidth="850" pageHeight="1100" math="0" shadow="0">
      <root>
        <mxCell id="0" />
        <mxCell id="1" parent="0" />
        <mxCell id="f79oXNJQq2VnT7f8WsGu-6" style="edgeStyle=orthogonalEdgeStyle;rounded=0;orthogonalLoop=1;jettySize=auto;html=1;entryX=0.5;entryY=0;entryDx=0;entryDy=0;" edge="1" parent="1" source="f79oXNJQq2VnT7f8WsGu-1" target="f79oXNJQq2VnT7f8WsGu-3">
          <mxGeometry relative="1" as="geometry" />
        </mxCell>
        <mxCell id="f79oXNJQq2VnT7f8WsGu-1" value="" style="ellipse;html=1;shape=startState;fillColor=#000000;strokeColor=#ff0000;" vertex="1" parent="1">
          <mxGeometry x="365" y="20" width="30" height="30" as="geometry" />
        </mxCell>
        <mxCell id="f79oXNJQq2VnT7f8WsGu-12" style="edgeStyle=orthogonalEdgeStyle;rounded=0;orthogonalLoop=1;jettySize=auto;html=1;entryX=0.5;entryY=0;entryDx=0;entryDy=0;" edge="1" parent="1" source="f79oXNJQq2VnT7f8WsGu-3" target="f79oXNJQq2VnT7f8WsGu-11">
          <mxGeometry relative="1" as="geometry" />
        </mxCell>
        <mxCell id="f79oXNJQq2VnT7f8WsGu-25" style="edgeStyle=orthogonalEdgeStyle;rounded=0;orthogonalLoop=1;jettySize=auto;html=1;entryX=1;entryY=0.5;entryDx=0;entryDy=0;" edge="1" parent="1" source="f79oXNJQq2VnT7f8WsGu-3" target="f79oXNJQq2VnT7f8WsGu-24">
          <mxGeometry relative="1" as="geometry" />
        </mxCell>
        <mxCell id="f79oXNJQq2VnT7f8WsGu-3" value="Ingresando contraseña" style="rounded=1;whiteSpace=wrap;html=1;arcSize=13;fontColor=#000000;fillColor=#ffffc0;strokeColor=#ff0000;" vertex="1" parent="1">
          <mxGeometry x="310" y="120" width="140" height="60" as="geometry" />
        </mxCell>
        <mxCell id="f79oXNJQq2VnT7f8WsGu-8" value="&lt;div align=&quot;left&quot;&gt;Se ingresa una tarjeta/&lt;/div&gt;&lt;div align=&quot;left&quot;&gt;leer datos, solicitar contraseña&lt;br&gt;&lt;/div&gt;" style="text;html=1;strokeColor=none;fillColor=none;align=left;verticalAlign=middle;whiteSpace=wrap;rounded=0;" vertex="1" parent="1">
          <mxGeometry x="390" y="70" width="205" height="30" as="geometry" />
        </mxCell>
        <mxCell id="f79oXNJQq2VnT7f8WsGu-9" style="edgeStyle=orthogonalEdgeStyle;rounded=0;orthogonalLoop=1;jettySize=auto;html=1;entryX=1;entryY=0.75;entryDx=0;entryDy=0;exitX=1;exitY=0.25;exitDx=0;exitDy=0;" edge="1" parent="1" source="f79oXNJQq2VnT7f8WsGu-3" target="f79oXNJQq2VnT7f8WsGu-3">
          <mxGeometry relative="1" as="geometry">
            <Array as="points">
              <mxPoint x="480" y="135" />
              <mxPoint x="480" y="165" />
            </Array>
          </mxGeometry>
        </mxCell>
        <mxCell id="f79oXNJQq2VnT7f8WsGu-10" value="&lt;div align=&quot;left&quot;&gt;Se ingresa un código de 4 dígitos/&lt;/div&gt;&lt;div align=&quot;left&quot;&gt;actualizar pantalla, esperar confirmación&lt;br&gt;&lt;/div&gt;" style="text;html=1;strokeColor=none;fillColor=none;align=left;verticalAlign=middle;whiteSpace=wrap;rounded=0;" vertex="1" parent="1">
          <mxGeometry x="490" y="135" width="240" height="30" as="geometry" />
        </mxCell>
        <mxCell id="f79oXNJQq2VnT7f8WsGu-27" style="edgeStyle=orthogonalEdgeStyle;rounded=0;orthogonalLoop=1;jettySize=auto;html=1;" edge="1" parent="1" source="f79oXNJQq2VnT7f8WsGu-11" target="f79oXNJQq2VnT7f8WsGu-26">
          <mxGeometry relative="1" as="geometry">
            <Array as="points">
              <mxPoint x="520" y="270" />
              <mxPoint x="520" y="270" />
            </Array>
          </mxGeometry>
        </mxCell>
        <mxCell id="f79oXNJQq2VnT7f8WsGu-11" value="&lt;div&gt;Esperando selección&lt;/div&gt;&lt;div&gt;de operación&lt;br&gt;&lt;/div&gt;" style="rounded=1;whiteSpace=wrap;html=1;arcSize=13;fontColor=#000000;fillColor=#ffffc0;strokeColor=#ff0000;" vertex="1" parent="1">
          <mxGeometry x="310" y="260" width="140" height="60" as="geometry" />
        </mxCell>
        <mxCell id="f79oXNJQq2VnT7f8WsGu-13" value="&lt;div align=&quot;left&quot;&gt;Se presiona el botón &amp;lt;aceptar&amp;gt; [clave válida]/&lt;/div&gt;&lt;div align=&quot;left&quot;&gt;mostrar pantalla de operaciones, recuperar información de cuenta&lt;br&gt;&lt;/div&gt;" style="text;html=1;strokeColor=none;fillColor=none;align=left;verticalAlign=middle;whiteSpace=wrap;rounded=0;" vertex="1" parent="1">
          <mxGeometry x="390" y="200" width="390" height="40" as="geometry" />
        </mxCell>
        <mxCell id="f79oXNJQq2VnT7f8WsGu-16" style="edgeStyle=orthogonalEdgeStyle;rounded=0;orthogonalLoop=1;jettySize=auto;html=1;entryX=0.5;entryY=0;entryDx=0;entryDy=0;exitX=0.998;exitY=0.835;exitDx=0;exitDy=0;exitPerimeter=0;" edge="1" parent="1" source="f79oXNJQq2VnT7f8WsGu-11" target="f79oXNJQq2VnT7f8WsGu-15">
          <mxGeometry relative="1" as="geometry">
            <mxPoint x="510" y="310" as="sourcePoint" />
            <Array as="points">
              <mxPoint x="850" y="310" />
            </Array>
          </mxGeometry>
        </mxCell>
        <mxCell id="f79oXNJQq2VnT7f8WsGu-21" style="edgeStyle=orthogonalEdgeStyle;rounded=0;orthogonalLoop=1;jettySize=auto;html=1;entryX=0.5;entryY=0;entryDx=0;entryDy=0;" edge="1" parent="1" target="f79oXNJQq2VnT7f8WsGu-20">
          <mxGeometry relative="1" as="geometry">
            <mxPoint x="310" y="290" as="sourcePoint" />
            <Array as="points">
              <mxPoint x="-60" y="290" />
            </Array>
          </mxGeometry>
        </mxCell>
        <mxCell id="f79oXNJQq2VnT7f8WsGu-17" style="edgeStyle=orthogonalEdgeStyle;rounded=0;orthogonalLoop=1;jettySize=auto;html=1;" edge="1" parent="1" source="f79oXNJQq2VnT7f8WsGu-15">
          <mxGeometry relative="1" as="geometry">
            <mxPoint x="420" y="320" as="targetPoint" />
            <Array as="points">
              <mxPoint x="420" y="430" />
              <mxPoint x="420" y="320" />
            </Array>
          </mxGeometry>
        </mxCell>
        <mxCell id="f79oXNJQq2VnT7f8WsGu-18" style="edgeStyle=orthogonalEdgeStyle;rounded=0;orthogonalLoop=1;jettySize=auto;html=1;exitX=0.25;exitY=1;exitDx=0;exitDy=0;" edge="1" parent="1" source="f79oXNJQq2VnT7f8WsGu-15">
          <mxGeometry relative="1" as="geometry">
            <mxPoint x="400" y="320" as="targetPoint" />
            <Array as="points">
              <mxPoint x="815" y="510" />
              <mxPoint x="400" y="510" />
            </Array>
          </mxGeometry>
        </mxCell>
        <mxCell id="f79oXNJQq2VnT7f8WsGu-19" style="edgeStyle=orthogonalEdgeStyle;rounded=0;orthogonalLoop=1;jettySize=auto;html=1;exitX=0.75;exitY=1;exitDx=0;exitDy=0;" edge="1" parent="1" source="f79oXNJQq2VnT7f8WsGu-15">
          <mxGeometry relative="1" as="geometry">
            <mxPoint x="380" y="320" as="targetPoint" />
            <Array as="points">
              <mxPoint x="885" y="600" />
              <mxPoint x="380" y="600" />
            </Array>
          </mxGeometry>
        </mxCell>
        <mxCell id="f79oXNJQq2VnT7f8WsGu-29" style="edgeStyle=orthogonalEdgeStyle;rounded=0;orthogonalLoop=1;jettySize=auto;html=1;entryX=0;entryY=0.5;entryDx=0;entryDy=0;" edge="1" parent="1" source="f79oXNJQq2VnT7f8WsGu-15" target="f79oXNJQq2VnT7f8WsGu-28">
          <mxGeometry relative="1" as="geometry">
            <mxPoint x="1110" y="430" as="targetPoint" />
            <Array as="points">
              <mxPoint x="1030" y="415" />
              <mxPoint x="1030" y="415" />
            </Array>
          </mxGeometry>
        </mxCell>
        <mxCell id="f79oXNJQq2VnT7f8WsGu-15" value="Ingresando monto a retirar" style="rounded=1;whiteSpace=wrap;html=1;arcSize=13;fontColor=#000000;fillColor=#ffffc0;strokeColor=#ff0000;" vertex="1" parent="1">
          <mxGeometry x="780" y="400" width="140" height="60" as="geometry" />
        </mxCell>
        <mxCell id="f79oXNJQq2VnT7f8WsGu-22" style="edgeStyle=orthogonalEdgeStyle;rounded=0;orthogonalLoop=1;jettySize=auto;html=1;" edge="1" parent="1" source="f79oXNJQq2VnT7f8WsGu-20">
          <mxGeometry relative="1" as="geometry">
            <mxPoint x="360" y="319" as="targetPoint" />
            <Array as="points">
              <mxPoint x="-20" y="510" />
              <mxPoint x="360" y="510" />
            </Array>
          </mxGeometry>
        </mxCell>
        <mxCell id="f79oXNJQq2VnT7f8WsGu-23" style="edgeStyle=orthogonalEdgeStyle;rounded=0;orthogonalLoop=1;jettySize=auto;html=1;" edge="1" parent="1" source="f79oXNJQq2VnT7f8WsGu-20" target="f79oXNJQq2VnT7f8WsGu-11">
          <mxGeometry relative="1" as="geometry">
            <mxPoint x="330" y="321" as="targetPoint" />
            <Array as="points">
              <mxPoint x="340" y="430" />
            </Array>
          </mxGeometry>
        </mxCell>
        <mxCell id="f79oXNJQq2VnT7f8WsGu-47" style="edgeStyle=orthogonalEdgeStyle;rounded=0;orthogonalLoop=1;jettySize=auto;html=1;entryX=0.5;entryY=0;entryDx=0;entryDy=0;" edge="1" parent="1" source="f79oXNJQq2VnT7f8WsGu-20" target="f79oXNJQq2VnT7f8WsGu-31">
          <mxGeometry relative="1" as="geometry">
            <Array as="points">
              <mxPoint x="-100" y="480" />
              <mxPoint x="-100" y="480" />
            </Array>
          </mxGeometry>
        </mxCell>
        <mxCell id="f79oXNJQq2VnT7f8WsGu-20" value="Mostrando información de saldo" style="rounded=1;whiteSpace=wrap;html=1;arcSize=13;fontColor=#000000;fillColor=#ffffc0;strokeColor=#ff0000;" vertex="1" parent="1">
          <mxGeometry x="-130" y="400" width="140" height="60" as="geometry" />
        </mxCell>
        <mxCell id="f79oXNJQq2VnT7f8WsGu-24" value="" style="ellipse;html=1;shape=endState;fillColor=#000000;strokeColor=#ff0000;" vertex="1" parent="1">
          <mxGeometry x="-60" y="135" width="30" height="30" as="geometry" />
        </mxCell>
        <mxCell id="f79oXNJQq2VnT7f8WsGu-26" value="" style="ellipse;html=1;shape=endState;fillColor=#000000;strokeColor=#ff0000;" vertex="1" parent="1">
          <mxGeometry x="800" y="255" width="30" height="30" as="geometry" />
        </mxCell>
        <mxCell id="f79oXNJQq2VnT7f8WsGu-28" value="" style="ellipse;html=1;shape=endState;fillColor=#000000;strokeColor=#ff0000;" vertex="1" parent="1">
          <mxGeometry x="1380" y="400" width="30" height="30" as="geometry" />
        </mxCell>
        <mxCell id="f79oXNJQq2VnT7f8WsGu-31" value="" style="ellipse;html=1;shape=endState;fillColor=#000000;strokeColor=#ff0000;" vertex="1" parent="1">
          <mxGeometry x="-115" y="540" width="30" height="30" as="geometry" />
        </mxCell>
        <mxCell id="f79oXNJQq2VnT7f8WsGu-32" value="&lt;div align=&quot;left&quot;&gt;Se selecciona la opción &quot;extracción de saldo&quot;/&lt;/div&gt;&lt;div align=&quot;left&quot;&gt;mostrar pantalla de extracción, iniciar el campo de monto&lt;br&gt;&lt;/div&gt;" style="text;html=1;strokeColor=none;fillColor=none;align=left;verticalAlign=middle;whiteSpace=wrap;rounded=0;" vertex="1" parent="1">
          <mxGeometry x="865" y="330" width="385" height="40" as="geometry" />
        </mxCell>
        <mxCell id="f79oXNJQq2VnT7f8WsGu-33" value="&lt;div align=&quot;left&quot;&gt;Se selecciona la opción &quot;cancelar&quot;/&lt;/div&gt;&lt;div align=&quot;left&quot;&gt;aborar operación actual, expulsar tarjeta, salir del sistema&lt;br&gt;&lt;/div&gt;" style="text;html=1;strokeColor=none;fillColor=none;align=left;verticalAlign=middle;whiteSpace=wrap;rounded=0;" vertex="1" parent="1">
          <mxGeometry x="460" y="250" width="330" height="40" as="geometry" />
        </mxCell>
        <mxCell id="f79oXNJQq2VnT7f8WsGu-34" value="&lt;div align=&quot;left&quot;&gt;Se selecciona la opción &quot;cancelar&quot;/&lt;/div&gt;&lt;div align=&quot;left&quot;&gt;aborar operación actual, expulsar tarjeta, salir del sistema&lt;br&gt;&lt;/div&gt;" style="text;html=1;strokeColor=none;fillColor=none;align=left;verticalAlign=middle;whiteSpace=wrap;rounded=0;" vertex="1" parent="1">
          <mxGeometry x="927.5" y="395" width="330" height="40" as="geometry" />
        </mxCell>
        <mxCell id="f79oXNJQq2VnT7f8WsGu-35" value="&lt;div align=&quot;left&quot;&gt;Se presiona el botón &amp;lt;confirmar&amp;gt; [monto es menor o igual a saldo,&lt;/div&gt;&lt;div align=&quot;left&quot;&gt;y menor o igual a dinero disponible en el cajero]/&lt;/div&gt;&lt;div align=&quot;left&quot;&gt;contar y entregar dinero, registrar retiro, restar monto al saldo de la cuenta&lt;/div&gt;&lt;div align=&quot;left&quot;&gt;y a la cantidad disponible en el cajero imprimir comprobante&lt;br&gt;&lt;/div&gt;" style="text;html=1;strokeColor=none;fillColor=none;align=left;verticalAlign=middle;whiteSpace=wrap;rounded=0;" vertex="1" parent="1">
          <mxGeometry x="890" y="540" width="600" height="60" as="geometry" />
        </mxCell>
        <mxCell id="f79oXNJQq2VnT7f8WsGu-36" style="edgeStyle=orthogonalEdgeStyle;rounded=0;orthogonalLoop=1;jettySize=auto;html=1;entryX=0.857;entryY=1.017;entryDx=0;entryDy=0;entryPerimeter=0;" edge="1" parent="1" source="f79oXNJQq2VnT7f8WsGu-15" target="f79oXNJQq2VnT7f8WsGu-15">
          <mxGeometry relative="1" as="geometry">
            <Array as="points">
              <mxPoint x="940" y="440" />
              <mxPoint x="940" y="480" />
              <mxPoint x="900" y="480" />
            </Array>
          </mxGeometry>
        </mxCell>
        <mxCell id="f79oXNJQq2VnT7f8WsGu-37" value="&lt;div align=&quot;left&quot;&gt;Se ingresa un dígito/&lt;/div&gt;&lt;div align=&quot;left&quot;&gt;actualizar campo de monto&lt;br&gt;&lt;/div&gt;" style="text;html=1;strokeColor=none;fillColor=none;align=left;verticalAlign=middle;whiteSpace=wrap;rounded=0;" vertex="1" parent="1">
          <mxGeometry x="950" y="440" width="385" height="40" as="geometry" />
        </mxCell>
        <mxCell id="f79oXNJQq2VnT7f8WsGu-38" value="&lt;div align=&quot;left&quot;&gt;Se presiona el botón &amp;lt;confirmar&amp;gt; [monto es menor o igual a saldo,&lt;/div&gt;&lt;div align=&quot;left&quot;&gt;y menor mayor a dinero disponible en el cajero]/&lt;/div&gt;mostrar mensaje &quot;no se puede entregar dinero&quot;" style="text;html=1;strokeColor=none;fillColor=none;align=left;verticalAlign=middle;whiteSpace=wrap;rounded=0;" vertex="1" parent="1">
          <mxGeometry x="410" y="520" width="420" height="40" as="geometry" />
        </mxCell>
        <mxCell id="f79oXNJQq2VnT7f8WsGu-39" value="&lt;div align=&quot;left&quot;&gt;Se presiona el botón &amp;lt;confirmar&amp;gt; [monto es mayor que saldo]/&lt;/div&gt;mostrar mensaje &quot;saldo insuficiente&quot;" style="text;html=1;strokeColor=none;fillColor=none;align=left;verticalAlign=middle;whiteSpace=wrap;rounded=0;" vertex="1" parent="1">
          <mxGeometry x="430" y="360" width="420" height="30" as="geometry" />
        </mxCell>
        <mxCell id="f79oXNJQq2VnT7f8WsGu-41" value="&lt;div align=&quot;left&quot;&gt;Se selecciona la opción &quot;cancelar&quot;/&lt;/div&gt;&lt;div align=&quot;left&quot;&gt;aborar operación actual, expulsar tarjeta, salir del sistema&lt;br&gt;&lt;/div&gt;" style="text;html=1;strokeColor=none;fillColor=none;align=left;verticalAlign=middle;whiteSpace=wrap;rounded=0;" vertex="1" parent="1">
          <mxGeometry x="-20" y="130" width="330" height="40" as="geometry" />
        </mxCell>
        <mxCell id="f79oXNJQq2VnT7f8WsGu-42" value="&lt;div align=&quot;left&quot;&gt;Se presiona el botón &amp;lt;imprimir&amp;gt; /&lt;/div&gt;imprimir comprobante" style="text;html=1;strokeColor=none;fillColor=none;align=left;verticalAlign=middle;whiteSpace=wrap;rounded=0;" vertex="1" parent="1">
          <mxGeometry x="-10" y="520" width="200" height="30" as="geometry" />
        </mxCell>
        <mxCell id="f79oXNJQq2VnT7f8WsGu-43" value="&lt;div align=&quot;left&quot;&gt;Se presiona el botón &amp;lt;volver al menú principal&amp;gt;&lt;/div&gt;" style="text;html=1;strokeColor=none;fillColor=none;align=left;verticalAlign=middle;whiteSpace=wrap;rounded=0;" vertex="1" parent="1">
          <mxGeometry x="50" y="405" width="320" height="20" as="geometry" />
        </mxCell>
        <mxCell id="f79oXNJQq2VnT7f8WsGu-46" value="&lt;div align=&quot;right&quot;&gt;Se selecciona la opción &quot;cancelar&quot;/&lt;/div&gt;&lt;div align=&quot;right&quot;&gt;aborar operación actual, expulsar tarjeta, salir del sistema&lt;br&gt;&lt;/div&gt;" style="text;html=1;strokeColor=none;fillColor=none;align=right;verticalAlign=middle;whiteSpace=wrap;rounded=0;" vertex="1" parent="1">
          <mxGeometry x="-440" y="480" width="330" height="40" as="geometry" />
        </mxCell>
        <mxCell id="f79oXNJQq2VnT7f8WsGu-48" value="&lt;div align=&quot;left&quot;&gt;Se selecciona la opción &quot;consultar saldo&quot;/&lt;/div&gt;&lt;div align=&quot;left&quot;&gt;mostrar datos de cuenta, habilitar botón de impresión&lt;br&gt;&lt;/div&gt;" style="text;html=1;strokeColor=none;fillColor=none;align=left;verticalAlign=middle;whiteSpace=wrap;rounded=0;" vertex="1" parent="1">
          <mxGeometry x="-50" y="330" width="385" height="30" as="geometry" />
        </mxCell>
      </root>
    </mxGraphModel>
  </diagram>
</mxfile>
